<?xml version="1.0" standalone="no"?>
<!DOCTYPE svg PUBLIC "-//W3C//DTD SVG 20010904//EN"
 "http://www.w3.org/TR/2001/REC-SVG-20010904/DTD/svg10.dtd">
<svg version="1.0" xmlns="http://www.w3.org/2000/svg"
 width="584.000000pt" height="147.000000pt" viewBox="0 0 584.000000 147.000000"
 preserveAspectRatio="xMidYMid meet">

<g transform="translate(0.000000,147.000000) scale(0.100000,-0.100000)"
fill="#000000" stroke="none">
<path d="M300 745 l0 -255 95 0 94 0 3 113 3 112 63 -112 64 -113 109 0 109 0
-81 122 c-45 67 -82 127 -82 133 0 6 32 59 72 118 39 59 74 114 78 122 4 13
-12 15 -99 15 l-104 0 -65 -114 -64 -114 -5 112 -5 111 -92 3 -93 3 0 -256z"/>
<path d="M870 745 l0 -255 165 0 c91 0 165 2 165 5 0 3 -5 14 -12 24 -9 15 -9
25 0 45 l12 26 -70 0 -70 0 0 50 0 50 139 0 139 0 -11 30 c-9 23 -9 35 1 50
12 20 9 20 -128 20 l-140 0 0 50 0 50 70 0 c64 0 86 9 60 25 -5 3 -10 17 -10
30 0 13 5 27 10 30 31 19 -4 25 -155 25 l-165 0 0 -255z"/>
<path d="M1530 945 l0 -55 85 0 85 0 0 -200 0 -200 90 0 90 0 0 200 0 200 86
0 85 0 -3 53 -3 52 -257 3 -258 2 0 -55z"/>
<path d="M2080 745 l0 -255 95 0 95 0 -2 253 -3 252 -92 3 -93 3 0 -256z"/>
<path d="M2510 890 c0 -91 3 -110 15 -110 11 0 15 12 15 50 0 36 4 50 14 50 8
0 31 -22 51 -50 20 -27 43 -50 51 -50 20 0 18 7 -22 62 l-37 49 32 45 c53 76
34 91 -25 19 -20 -25 -43 -45 -50 -45 -10 0 -14 13 -14 45 0 33 -4 45 -15 45
-12 0 -15 -19 -15 -110z"/>
<path d="M3454 987 c-3 -8 -3 -56 -2 -108 l3 -94 73 -3 c59 -2 72 0 72 13 0
12 -13 15 -60 15 l-60 0 0 35 0 35 50 0 c38 0 50 4 50 15 0 11 -12 15 -51 15
-49 0 -50 1 -47 28 3 26 6 27 61 30 42 2 57 7 57 17 0 20 -138 22 -146 2z"/>
<path d="M3645 988 c-3 -8 -4 -57 -3 -109 2 -76 6 -94 18 -94 12 0 15 18 15
104 0 75 -4 106 -12 108 -7 3 -15 -2 -18 -9z"/>
<path d="M4680 975 c0 -16 6 -25 15 -25 9 0 15 9 15 25 0 16 -6 25 -15 25 -9
0 -15 -9 -15 -25z"/>
<path d="M4077 973 c-14 -14 -7 -148 9 -171 18 -26 74 -31 74 -7 0 9 -9 15
-25 15 -24 0 -25 3 -25 55 0 52 1 55 25 55 16 0 25 6 25 15 0 9 -9 15 -24 15
-13 0 -26 7 -30 15 -6 16 -18 19 -29 8z"/>
<path d="M2707 932 c-24 -26 -23 -113 1 -135 21 -19 73 -22 103 -7 16 9 19 22
19 75 0 53 -3 66 -19 75 -31 16 -86 12 -104 -8z m88 -67 l0 -50 -35 0 c-33 0
-35 2 -38 39 -5 56 3 68 40 64 32 -3 33 -4 33 -53z"/>
<path d="M2885 926 c-19 -29 -17 -137 2 -143 8 -3 13 16 15 64 l3 68 33 3 c45
5 43 32 -3 32 -25 0 -39 -6 -50 -24z"/>
<path d="M3006 928 c-9 -12 -16 -41 -16 -63 0 -56 22 -85 66 -85 42 0 74 15
74 35 0 17 -21 20 -37 4 -16 -16 -67 -7 -71 14 -3 14 5 17 52 17 l56 0 0 40
c0 45 -18 60 -74 60 -25 0 -39 -6 -50 -22z m92 -30 c3 -15 -4 -18 -37 -18 -39
0 -53 14 -34 34 14 14 68 1 71 -16z"/>
<path d="M3187 944 c-13 -14 6 -24 44 -24 28 0 39 -4 39 -15 0 -10 -10 -15
-29 -15 -43 0 -61 -10 -72 -38 -7 -18 -5 -31 6 -49 14 -21 22 -24 73 -21 l57
3 3 58 c4 81 -13 107 -72 107 -23 0 -46 -3 -49 -6z m83 -109 c0 -22 -4 -25
-35 -25 -27 0 -35 4 -35 18 0 25 9 32 42 32 23 0 28 -4 28 -25z"/>
<path d="M3736 934 c-11 -10 -16 -34 -16 -69 0 -65 16 -85 70 -85 42 0 79 25
61 43 -7 7 -15 6 -25 -2 -21 -18 -70 -10 -74 12 -3 14 5 17 52 17 l56 0 0 34
c0 19 -7 42 -16 50 -20 21 -88 21 -108 0z m92 -36 c3 -15 -4 -18 -37 -18 -39
0 -53 14 -34 34 14 14 68 1 71 -16z"/>
<path d="M3916 934 c-11 -10 -16 -34 -16 -69 0 -65 16 -85 70 -85 42 0 79 25
61 43 -7 7 -15 6 -25 -2 -8 -7 -27 -11 -43 -9 -27 3 -28 6 -28 53 0 47 1 50
28 53 16 2 35 -2 43 -9 23 -19 40 4 19 25 -21 21 -88 21 -109 0z"/>
<path d="M4216 934 c-22 -21 -23 -154 -1 -154 11 0 15 16 17 68 3 65 4 67 31
70 15 2 27 9 27 18 0 19 -54 18 -74 -2z"/>
<path d="M4338 939 c-27 -15 -26 -134 1 -149 31 -16 86 -12 104 8 24 26 23
113 -1 135 -21 19 -77 22 -104 6z m87 -74 l0 -50 -35 0 c-33 0 -35 2 -38 39
-5 56 3 68 40 64 32 -3 33 -4 33 -53z"/>
<path d="M4500 864 c0 -64 3 -85 13 -82 7 3 13 29 15 72 l3 67 37 -3 37 -3 3
-68 c4 -86 26 -88 30 -3 4 85 -12 106 -83 106 l-55 0 0 -86z"/>
<path d="M4766 928 c-9 -12 -16 -41 -16 -63 0 -56 22 -85 66 -85 42 0 74 15
74 35 0 18 -12 19 -27 4 -6 -6 -26 -9 -44 -7 -34 3 -34 4 -34 53 l0 50 38 3
c21 2 37 -1 37 -7 0 -6 7 -11 15 -11 22 0 19 27 -4 40 -35 18 -88 12 -105 -12z"/>
<path d="M4937 932 c-34 -38 -8 -78 53 -84 23 -2 35 -8 35 -18 0 -11 -13 -16
-47 -18 -34 -2 -48 -7 -48 -18 0 -10 13 -14 46 -14 61 0 84 14 84 50 0 34 -11
42 -65 50 -59 8 -54 34 8 38 33 2 47 7 47 18 0 22 -92 19 -113 -4z"/>
<path d="M4680 855 c0 -60 3 -75 15 -75 12 0 15 15 15 75 0 60 -3 75 -15 75
-12 0 -15 -15 -15 -75z"/>
<path d="M2480 695 c0 -10 10 -15 30 -15 l29 0 3 -92 c2 -75 6 -93 18 -93 12
0 16 18 18 93 l3 92 29 0 c20 0 30 5 30 15 0 12 -16 15 -80 15 -64 0 -80 -3
-80 -15z"/>
<path d="M3004 697 c-10 -28 1 -200 14 -205 9 -3 12 15 12 67 l0 71 40 0 39 0
3 -67 c2 -42 8 -68 16 -71 16 -5 17 139 0 156 -7 7 -31 12 -55 12 -39 0 -43 2
-43 25 0 26 -17 34 -26 12z"/>
<path d="M3550 600 c0 -91 3 -110 15 -110 12 0 15 19 15 110 0 91 -3 110 -15
110 -12 0 -15 -19 -15 -110z"/>
<path d="M4260 600 c0 -91 3 -110 15 -110 12 0 15 19 15 110 0 91 -3 110 -15
110 -12 0 -15 -19 -15 -110z"/>
<path d="M4820 685 c0 -16 6 -25 15 -25 9 0 15 9 15 25 0 16 -6 25 -15 25 -9
0 -15 -9 -15 -25z"/>
<path d="M4690 606 c0 -95 11 -116 61 -116 38 0 39 27 2 32 -26 3 -28 7 -31
55 -3 49 -2 52 23 55 33 4 33 22 0 26 -14 2 -25 10 -25 18 0 8 -7 14 -15 14
-12 0 -15 -16 -15 -84z"/>
<path d="M4900 600 c0 -80 2 -90 21 -100 23 -13 60 -10 60 5 0 6 -10 12 -23
15 -20 5 -23 13 -26 58 -3 50 -2 52 22 52 16 0 26 6 26 15 0 9 -9 15 -25 15
-16 0 -25 6 -25 15 0 8 -7 15 -15 15 -12 0 -15 -17 -15 -90z"/>
<path d="M5200 606 c0 -76 2 -86 22 -100 12 -9 33 -16 45 -16 33 0 29 28 -4
32 -26 3 -28 7 -31 55 -3 50 -2 52 24 55 40 4 43 28 5 28 -21 0 -31 5 -31 15
0 8 -7 15 -15 15 -12 0 -15 -16 -15 -84z"/>
<path d="M2662 648 c-18 -18 -15 -123 4 -142 23 -23 87 -21 109 4 23 25 12 37
-19 21 -30 -17 -70 -11 -74 11 -3 14 6 17 50 20 51 3 53 4 56 34 2 19 -3 38
-13 48 -19 19 -95 22 -113 4z m96 -40 c3 -15 -4 -18 -37 -18 -39 0 -53 14 -34
34 14 14 68 1 71 -16z"/>
<path d="M2842 648 c-18 -18 -15 -123 4 -142 21 -22 77 -20 105 3 29 23 18 39
-15 22 -12 -7 -34 -11 -47 -9 -22 3 -24 8 -24 53 0 47 1 50 28 53 16 2 35 -2
43 -9 23 -19 40 4 19 25 -19 19 -95 22 -113 4z"/>
<path d="M3190 574 c0 -64 3 -85 13 -82 7 3 13 29 15 72 l3 67 37 -3 37 -3 3
-68 c4 -89 26 -87 30 2 4 83 -11 101 -85 101 l-53 0 0 -86z"/>
<path d="M3382 648 c-7 -7 -12 -39 -12 -75 0 -51 3 -64 19 -73 31 -16 79 -12
101 10 25 25 28 111 4 134 -18 19 -94 22 -112 4z m93 -73 l0 -50 -35 0 -35 0
-3 53 -3 53 38 -3 38 -3 0 -50z"/>
<path d="M3642 648 c-7 -7 -12 -39 -12 -75 0 -69 11 -83 69 -83 45 0 71 31 71
83 0 62 -21 87 -74 87 -23 0 -47 -5 -54 -12z m96 -52 c2 -15 1 -39 -3 -53 -5
-20 -11 -24 -38 -21 -31 3 -32 4 -35 56 l-3 53 38 -3 c34 -3 38 -6 41 -32z"/>
<path d="M3816 638 c-9 -12 -16 -39 -16 -60 0 -49 28 -78 76 -78 48 0 40 -23
-10 -30 -20 -3 -36 -9 -36 -15 1 -14 88 -11 103 4 8 8 12 44 12 104 l0 92 -57
3 c-49 3 -58 0 -72 -20z m94 -59 l0 -50 -32 3 c-32 3 -33 5 -36 51 l-3 47 35
0 36 0 0 -51z"/>
<path d="M3980 650 c0 -5 12 -40 26 -77 14 -38 23 -81 21 -96 -4 -32 6 -43 21
-24 10 11 82 191 82 203 0 2 -6 4 -14 4 -8 0 -24 -26 -38 -60 -12 -32 -25 -56
-29 -52 -3 4 -14 31 -25 60 -10 28 -24 52 -31 52 -7 0 -13 -4 -13 -10z"/>
<path d="M4340 574 c0 -64 3 -85 13 -82 7 3 13 29 15 72 l3 67 37 -3 37 -3 3
-67 c2 -52 6 -68 17 -68 12 0 15 15 15 69 0 88 -11 101 -86 101 l-54 0 0 -86z"/>
<path d="M4526 638 c-20 -29 -20 -34 4 -58 13 -13 33 -20 56 -20 28 0 35 -3
32 -17 -2 -14 -15 -19 -51 -21 -33 -2 -47 -7 -47 -18 0 -10 13 -14 46 -14 60
0 84 14 84 48 0 37 -17 52 -56 52 -31 0 -60 21 -47 33 3 4 26 7 50 7 32 0 43
4 43 15 0 11 -12 15 -49 15 -40 0 -53 -4 -65 -22z"/>
<path d="M5020 592 c0 -86 14 -102 88 -102 l52 0 0 85 c0 69 -3 85 -15 85 -12
0 -15 -15 -15 -71 l0 -70 -37 3 -38 3 -3 68 c-2 51 -6 67 -17 67 -12 0 -15
-15 -15 -68z"/>
<path d="M5332 648 c-7 -7 -12 -38 -12 -69 0 -67 16 -89 63 -89 40 0 83 28 68
43 -7 7 -15 6 -25 -2 -21 -17 -70 -10 -74 11 -3 14 6 17 50 20 51 3 53 4 56
34 2 19 -3 38 -13 48 -19 19 -95 22 -113 4z m96 -40 c3 -15 -4 -18 -37 -18
-35 0 -41 3 -41 21 0 17 5 20 37 17 27 -2 39 -8 41 -20z"/>
<path d="M4820 565 c0 -60 3 -75 15 -75 12 0 15 15 15 75 0 60 -3 75 -15 75
-12 0 -15 -15 -15 -75z"/>
</g>
</svg>
